PathFileType	4	(X/Y/Z)	OpenSim_Sub08_EMGBaseline_Accel.trc
DataRate	CameraRate	NumFrames	NumMarkers	Units	OrigDataRate	OrigDataStartFrame	OrigNumFrames
100	100	28	8	m	100	1	6654
Frame#	Time	torso_imu_offset_imu	pelvis_imu_offset_imu	tibia_r_imu_offset_imu	femur_r_imu_offset_imu	tibia_l_imu_offset_imu	femur_l_imu_offset_imu	toes_r_imu_offset_imu	toes_l_imu_offset_imu
				X1	Y1	Z1	X2	Y2	Z2	X3	Y3	Z3	X4	Y4	Z4	X5	Y5	Z5	X6	Y6	Z6	X7	Y7	Z7	X8		Y8	Z8	

1	0	8.94148010	0.14644273	6.69703517	9.33617155	0.22753052	3.48804745	9.88351080	0.06105612	1.16070796	9.74824866	-0.90371379	1.91379500	9.76021666	-0.39728774	0.84807077	9.77934931	0.24167283	-0.35880117	5.16885731	-1.46649159	8.43869108	5.40265331	0.33786109	10.95320798
2	0.01000000	8.95631655	0.13199686	6.69755192	9.30698768	0.22821612	3.46865904	9.91320078	0.05868829	1.13760392	9.77875178	-0.94953836	1.94732662	9.77008629	-0.46743773	0.82453996	9.80084197	0.22794791	-0.34993865	5.13646101	-1.48510101	8.45819234	5.42227613	0.33678619	10.94538586
3	0.02000000	8.97623888	0.14206420	6.68705950	9.29586228	0.23350339	3.48529800	9.90319164	0.08786938	1.16487434	9.77133598	-0.97005709	1.97253681	9.78435343	-0.48763950	0.78175997	9.82933953	0.24950428	-0.33965342	5.14183873	-1.48649375	8.45338942	5.41989383	0.33284810	10.91350619
4	0.03000000	8.97252379	0.14821713	6.71412093	9.33905054	0.22966507	3.46940610	9.88452277	0.11901811	1.16515018	9.77643566	-0.97259424	1.97614896	9.80560546	-0.45179528	0.83390491	9.82472565	0.26285442	-0.35144051	5.16779222	-1.48833895	8.43069818	5.43568479	0.34936966	10.91829039
5	0.04000000	8.95788770	0.14539432	6.70266358	9.36330146	0.23719860	3.49509231	9.87721234	0.13427892	1.15275153	9.77372215	-0.95325180	1.96233327	9.78200790	-0.38606283	0.81080213	9.81265570	0.28747161	-0.33780194	5.13754230	-1.47662560	8.45855839	5.40344745	0.35344027	10.92800836
6	0.05000000	9.00907664	0.14645773	6.70035558	9.38645985	0.22040396	3.47212811	9.87886717	0.16256716	1.13342078	9.80462498	-0.94822853	1.94585892	9.79885271	-0.34993664	0.80657089	9.82300219	0.28124273	-0.35313130	5.13882602	-1.48167538	8.46179591	5.39098001	0.37289929	10.94197773
7	0.06000000	9.01282634	0.14820828	6.64571693	9.41273511	0.22431531	3.47852565	9.89184622	0.14822336	1.12848222	9.79342719	-0.93015535	1.92265202	9.79771110	-0.36784732	0.81631855	9.80133010	0.30162339	-0.35822577	5.12842481	-1.48325478	8.44488007	5.44589153	0.34892072	10.94785163
8	0.07000000	8.99121280	0.11729279	6.67592459	9.39595155	0.22960762	3.47019189	9.90374879	0.12409446	1.13917506	9.79436652	-0.89949498	1.87392050	9.75937408	-0.37334229	0.81681262	9.81321092	0.26805620	-0.34564982	5.12380782	-1.48341824	8.46488126	5.42633518	0.34400520	10.91330867
9	0.08000000	8.99469974	0.12241115	6.68968918	9.40010820	0.21788475	3.45917118	9.92278746	0.17084275	1.14455476	9.77375344	-0.90549125	1.89362135	9.79711458	-0.33568947	0.80476875	9.80554539	0.26559967	-0.37418341	5.17722424	-1.46814649	8.43730317	5.40826433	0.34605775	10.93987428
10	0.09000000	9.02516945	0.14308131	6.67660207	9.42670272	0.21996910	3.44383987	9.92058468	0.16324551	1.15303716	9.78009514	-0.89973972	1.92641947	9.78869721	-0.29246969	0.83468530	9.79958001	0.27676327	-0.39043444	5.12685151	-1.50155599	8.44585476	5.44616154	0.34551537	10.92962174
11	0.10000000	9.04119476	0.12470552	6.67984089	9.41847319	0.22962376	3.42058102	9.91667491	0.18336682	1.15149330	9.77549576	-0.86946272	1.94384920	9.77276013	-0.27091459	0.84338270	9.81261892	0.30296265	-0.42097167	5.15526878	-1.47610898	8.47348225	5.41976380	0.35976921	10.92375277
12	0.11000000	9.02982690	0.13667279	6.61527316	9.42629868	0.23378405	3.42320700	9.90774958	0.24442754	1.13127853	9.73257910	-0.87535418	1.94278741	9.79091020	-0.24132513	0.83039391	9.80343782	0.30757336	-0.41488919	5.16576938	-1.48660320	8.42608621	5.43703695	0.35490597	10.93566935
13	0.12000000	9.03973489	0.13325122	6.64360467	9.44114197	0.27180544	3.39559414	9.88684898	0.25819327	1.13583353	9.76260634	-0.88688985	1.96020494	9.80075033	-0.22572703	0.83868532	9.82464414	0.28886789	-0.42574911	5.17047715	-1.46802724	8.43061923	5.44922472	0.36923892	10.93069442
14	0.13000000	9.00877582	0.11720738	6.66453301	9.41484086	0.23705230	3.39180138	9.84341266	0.26189315	1.18554773	9.76923415	-0.84156006	1.96579894	9.79348021	-0.25677375	0.82575294	9.80176106	0.32183611	-0.43911892	5.18886889	-1.46062383	8.43553560	5.40846701	0.33411889	10.94002214
15	0.14000000	9.02074931	0.11986888	6.66082072	9.37383317	0.21260784	3.45356644	9.80654755	0.20147779	1.19018206	9.78446097	-0.86579435	1.99025288	9.77565823	-0.27960102	0.81572487	9.77555017	0.33193240	-0.46226947	5.18205671	-1.46069352	8.44453072	5.40382775	0.35941333	10.93702073
16	0.15000000	9.01468866	0.14566469	6.68549385	9.40114536	0.22304468	3.47496333	9.85775639	0.11401657	1.23253620	9.76694315	-0.85134229	1.96333432	9.77859248	-0.31169560	0.80444141	9.80828238	0.34537755	-0.44064167	5.14678242	-1.46455837	8.46794792	5.42298371	0.36393798	10.94967601
17	0.16000000	8.98671047	0.13253004	6.63864859	9.39704590	0.24251031	3.49174620	9.88944738	0.06465539	1.25313807	9.77455975	-0.82695862	1.95184687	9.78005238	-0.35159557	0.79099326	9.77601504	0.34577107	-0.41011116	5.15742454	-1.43971957	8.46267171	5.46476413	0.33712665	10.94001709
18	0.17000000	9.02145862	0.09488131	6.61751185	9.35632314	0.22392409	3.50724108	9.86594910	0.06693353	1.25541785	9.75476719	-0.88773652	2.01448728	9.79216578	-0.33160134	0.79424998	9.77401039	0.31512098	-0.37244310	5.14373618	-1.44817688	8.42952941	5.43231565	0.36664926	10.94575659
19	0.18000000	9.04675335	0.01525391	6.65976503	9.35008192	0.21641860	3.52363850	9.89501519	0.08771214	1.19180487	9.74631810	-0.92533189	2.01774891	9.77142153	-0.30960786	0.80175845	9.79171289	0.32471883	-0.37852492	5.17429669	-1.44337725	8.45399759	5.42030583	0.37853598	10.96734292
20	0.19000000	9.04412330	-0.00885028	6.66228363	9.35135245	0.24186464	3.52455502	9.89304490	0.11789330	1.21252261	9.78695949	-0.94777212	2.00799192	9.79372170	-0.26818523	0.79105291	9.77268634	0.34177305	-0.32524589	5.18050264	-1.43232551	8.47180278	5.41825513	0.35027257	10.89798081
21	0.20000000	9.05653146	0.04237047	6.66484665	9.36572371	0.22851247	3.52730505	9.85700595	0.12935192	1.25100123	9.77114506	-0.97682223	2.02429237	9.80193328	-0.21183855	0.76712905	9.81866909	0.36566159	-0.27774245	5.15166281	-1.45066303	8.47383896	5.41852720	0.36050318	10.93323134
22	0.21000000	9.01947592	0.04595012	6.66027039	9.35928351	0.20602011	3.56048146	9.87116420	0.13239721	1.23438212	9.77465954	-1.01046351	2.00567430	9.81524449	-0.29974042	0.82574743	9.91578893	0.28509819	-0.37064068	5.14025197	-1.46942211	8.44845961	5.40231273	0.36112223	10.95936469
23	0.22000000	8.98850261	0.03641576	6.62757668	9.35406979	0.22064428	3.56763718	9.88775915	0.15895411	1.22368335	9.81988768	-0.97338328	1.97530235	9.79470276	-0.46617293	0.85315180	9.85053004	0.21644220	-0.54026989	5.15927376	-1.45754196	8.46298860	5.42133148	0.30210954	10.92561102
24	0.23000000	9.02450411	-0.01581914	6.66057164	9.33619626	0.24283095	3.59324140	9.89896520	0.12785751	1.22788937	9.80935011	-0.95343403	2.01627209	9.75735881	-0.52170192	0.76756985	9.77072518	0.19789619	-0.59035786	5.15799816	-1.45053607	8.45687557	5.45511329	0.31034565	10.95296987
25	0.24000000	9.03958157	-0.02513104	6.67194644	9.33611209	0.27575727	3.60908773	9.88127638	0.10226632	1.26156119	9.80387401	-0.90655898	2.00245648	9.76457208	-0.49083865	0.76299314	9.83362090	0.15503121	-0.53816111	5.12725497	-1.45928744	8.43443405	5.41774122	0.32928810	10.92262176
26	0.25000000	9.00901054	0.00191798	6.68709892	9.30744164	0.26390817	3.60536429	9.88274199	0.08364229	1.24398171	9.76800873	-0.82606387	1.98576501	9.76134871	-0.49152965	0.82472319	9.79643441	0.14765341	-0.54048228	5.15409514	-1.46284034	8.48232259	5.42372559	0.32440857	10.92739772
27	0.26000000	8.99659912	-0.02232682	6.68995167	9.30241012	0.25999338	3.56247910	9.88388255	0.04876607	1.26131812	9.79381157	-0.79193555	2.02391191	9.76920626	-0.49882100	0.78045814	9.79038324	0.16102706	-0.54276610	5.15988852	-1.44825910	8.49159504	5.42029100	0.33153709	10.93832537
28	0.27000000	9.00139587	-0.05218527	6.68451727	9.28724612	0.28795535	3.57735528	9.93592594	0.06844718	1.25430085	9.80598533	-0.78398446	2.01603799	9.77873170	-0.54701352	0.69336095	9.76900075	0.22394202	-0.48610337	5.15850634	-1.44802237	8.43762628	5.42990582	0.35560502	10.96706046
